<svg width="48" height="49" viewBox="0 0 48 49" fill="none" xmlns="http://www.w3.org/2000/svg">
<rect y="0.714844" width="48" height="48" rx="24" fill="#219D86"/>
<g clip-path="url(#clip0_1603_5339)">
<path d="M18.938 17.9662V31.4602C18.9379 31.6103 18.9779 31.7576 19.0539 31.8871C19.1298 32.0165 19.2388 32.1234 19.3698 32.1966C19.5008 32.2698 19.6489 32.3068 19.799 32.3036C19.949 32.3005 20.0955 32.2574 20.2233 32.1788L31.1872 25.4317C31.31 25.3563 31.4114 25.2506 31.4817 25.1248C31.5521 24.999 31.589 24.8573 31.589 24.7132C31.589 24.5691 31.5521 24.4273 31.4817 24.3015C31.4114 24.1758 31.31 24.0701 31.1872 23.9946L20.2233 17.2476C20.0955 17.169 19.949 17.1259 19.799 17.1227C19.6489 17.1196 19.5008 17.1566 19.3698 17.2298C19.2388 17.303 19.1298 17.4099 19.0539 17.5393C18.9779 17.6688 18.9379 17.8161 18.938 17.9662Z" fill="white"/>
</g>
<defs>
<clipPath id="clip0_1603_5339">
<rect width="20.241" height="20.241" fill="white" transform="translate(13.8794 14.5942)"/>
</clipPath>
</defs>
</svg>
