<svg width="43" height="25" viewBox="0 0 43 25" fill="none" xmlns="http://www.w3.org/2000/svg">
<path d="M0.862821 12.9942C1.03806 12.2756 1.28063 11.5752 1.58736 10.9019C2.07285 9.96996 2.66711 9.0983 3.35791 8.30485C7.74562 3.50418 13.2496 0.479965 19.7542 0.216936C26.3868 -0.0342871 31.9704 2.6804 35.8565 8.25978C37.7778 11.0477 39.131 14.1812 39.8395 17.4828C39.9711 18.0818 40.1207 18.6805 40.3564 19.6662C41.1909 18.5573 41.8333 17.7127 42.4714 16.8671L42.8796 17.0514C42.9023 17.3557 42.8843 17.6616 42.8263 17.9611C42.351 19.4264 41.8582 20.8697 41.3391 22.3293C41.0104 23.2601 40.6478 24.2592 39.52 24.4361C38.309 24.6027 37.5113 23.8043 36.9669 22.8857C36.2296 21.6133 35.5712 20.2976 34.9954 18.9458C34.8742 18.6715 35.164 18.2195 35.2497 17.85C35.622 17.9364 36.134 17.9254 36.3355 18.1646C36.966 18.9063 37.4748 19.745 38.0333 20.5639C38.1132 20.4527 38.1994 20.3921 38.1932 20.3414C37.0371 10.2257 31.4709 3.08373 21.5023 1.77745C21.0138 1.71212 20.5198 1.698 20.0286 1.73535C13.0002 2.29309 7.223 5.23153 2.828 10.7243C2.29116 11.5039 1.8134 12.3221 1.39866 13.1723L0.862821 12.9942Z" fill="white"/>
</svg>
